PathFileType	4	(X/Y/Z)	70_2_44_p0_0-848_filt_butterworth.trc
DataRate	CameraRate	NumFrames	NumMarkers	Units	OrigDataRate	OrigDataStartFrame	OrigNumFrames
59.0	59.0	5	27	m	59.0	106	848
Frame#	Time	RHip			RKnee			RAnkle			RBigToe			RSmallToe			RHeel			LHip			LKnee			LAnkle			LBigToe			LSmallToe			LHeel			Neck			Head			Nose			RShoulder			RElbow			RWrist			RThumb			RIndex			RPinky			LShoulder			LElbow			LWrist			LThumb			LIndex			LPinky			
		X1	Y1	Z1	X2	Y2	Z2	X3	Y3	Z3	X4	Y4	Z4	X5	Y5	Z5	X6	Y6	Z6	X7	Y7	Z7	X8	Y8	Z8	X9	Y9	Z9	X10	Y10	Z10	X11	Y11	Z11	X12	Y12	Z12	X13	Y13	Z13	X14	Y14	Z14	X15	Y15	Z15	X16	Y16	Z16	X17	Y17	Z17	X18	Y18	Z18	X19	Y19	Z19	X20	Y20	Z20	X21	Y21	Z21	X22	Y22	Z22	X23	Y23	Z23	X24	Y24	Z24	X25	Y25	Z25	X26	Y26	Z26	X27	Y27	Z27	
106	1.7966101694915255	0.37095111771065936	0.5105337561517715	0.06450892409358502	0.3358568412946038	0.5941644134358119	0.48393762361980674	0.3714774542969604	0.7862271860474982	0.8990857976458488	0.32435955376847875	0.6717513282437242	1.0081116129168946	0.3974538375497101	0.6490528644273197	0.9879043372611103	0.36226522563856756	0.9166354897963291	0.9831184791812242	0.14780535481838789	0.5308801500328122	0.06255363679842288	0.166621492688058	0.6207971753854234	0.4944132078285524	0.189256137613134	0.8231060698102642	0.8831336387117638	0.17395672352030675	0.699140874531183	0.9994151226667352	0.12096576230212734	0.7349407355715438	0.9815382458250661	0.2245842522272634	0.9140172632578117	0.9336131891709208	0.22676363040652425	0.2935990129877601	-0.4808124148511933	0.1870649668578858	0.06587837660714575	-0.7082051789630416	0.14922327494384988	0.09638481423813347	-0.5384165521575486	0.39623189053559055	0.26843054043209585	-0.46532234692506647	0.5009837340875498	0.31587147730324683	-0.21287399830252593	0.3082012825387861	0.11763254261077709	-0.17902565881740048	0.1849749848431501	0.142998623341934	-0.21267125461340297	0.1942967940605315	0.08457876744309399	-0.19701533188656586	0.21175438468233626	0.13219738687022003	-0.13801279318067972	0.0492998493154867	0.390691491672984	-0.4730041055925361	-0.06984752365810666	0.623262574364424	-0.3273958565532108	-0.019505097761166504	0.5273799873724256	-0.11345847331995085	0.04203438277876883	0.4803342123455112	-0.06295116555820796	0.027467128620051986	0.45567693629422246	-0.03728337131543539	0.013295566693501279	0.5602661442141799	-0.008751938173220786
107	1.8135593220338984	0.3711547100287957	0.5100629972384745	0.061714687971325094	0.33757353178152416	0.6024161322029926	0.4819995281704263	0.37330670080115447	0.7885135033237191	0.897350535909123	0.324868408034421	0.6731807799772407	1.0097205092920176	0.39826294872627455	0.649730047197733	0.9878184739604793	0.3621364277496654	0.9168157788563962	0.9827055722429175	0.1448265140720411	0.5305144284926637	0.06221660050512049	0.16606953168445443	0.629946412465404	0.4954167745244032	0.18952962217675423	0.8230544471161909	0.8815532579428919	0.17475017871704054	0.7004494383901781	1.0012287111530394	0.12094257035955225	0.7350253377217241	0.9816555472077882	0.2251831740404644	0.9143515619969503	0.93117930093932	0.22987233315917566	0.291379093742559	-0.4806183103148825	0.19273712553990416	0.0683360533782633	-0.7114009734681851	0.15034112792790646	0.0962088290645968	-0.5409426536539571	0.3976400724063085	0.2633804183944942	-0.46776983929119437	0.5010366996509622	0.3161693334921637	-0.21312457949349686	0.3072838260961114	0.11530967677870993	-0.18524095278757938	0.1828034235259404	0.1434184012122325	-0.21646839553348157	0.1930351819460508	0.08027108651608203	-0.2048085251836247	0.2101261883968768	0.1280675526834928	-0.13823719270997306	0.05070671066168101	0.38969775584136873	-0.478043672392708	-0.07088932774097308	0.6219060822520073	-0.33817067226680303	-0.01822360665126336	0.5343071064799892	-0.11870204074117577	0.041184237362952986	0.4784373095799921	-0.07244414347176197	0.02632398778222501	0.4509164995819014	-0.043694786155429356	0.009231535546095203	0.5680369961733804	-0.02067106150561071
108	1.8305084745762712	0.36975016215616	0.5100876758558248	0.059826518206550675	0.3401789477468156	0.6087740878781429	0.47806492174979065	0.3753589752826103	0.7903699220788571	0.8963259829650791	0.3247742287739015	0.6735918818712638	1.012161732807886	0.3982000811958448	0.6487749695759674	0.9875630976270872	0.3620141607926529	0.9170181470344023	0.9817072367091286	0.1426945859241823	0.5302341303846912	0.062059769149487756	0.16632977762080944	0.6391335004655279	0.4962860728205635	0.18961074673047823	0.8230730391454637	0.880420786033861	0.17595398312882776	0.7017588306803169	1.003906950239037	0.12091436712050042	0.7351026526798738	0.9818001329718778	0.2255360848839667	0.9146209302299204	0.929847976046374	0.2334836953649761	0.29057679160052796	-0.48073644383118913	0.19697825751040132	0.07041947200510772	-0.7131204145624145	0.1511766157007242	0.09604869433468652	-0.5438846001859677	0.39947846415461064	0.25985549740046215	-0.4684982303190152	0.5010236673598328	0.31609046873324703	-0.2132328365736286	0.3077668729265946	0.12358429204209986	-0.1871992947113568	0.18184732743450227	0.1429945974940685	-0.2165174250380902	0.1920467891830014	0.07800145953183102	-0.20752457874037278	0.2069687367338104	0.1324192864277136	-0.13819892813892032	0.052517477322803305	0.3891680427651028	-0.4822956365461115	-0.07109939491365289	0.6228634718446715	-0.34502571293657697	-0.016973339482674828	0.540155664247538	-0.12010933855527618	0.041499106992479384	0.47482293099222983	-0.07911319402985979	0.024333048841780926	0.4442183146995917	-0.0471401721469848	0.007014476846226713	0.569307054565275	-0.02744834402682939
109	1.847457627118644	0.3674777428634227	0.5105747757380277	0.05912361037778594	0.34264400447620896	0.61238844205207	0.4749727447645759	0.3768063957874931	0.7918467755553203	0.8963716424002419	0.3244827481869257	0.6736096353854362	1.0139427718559637	0.39784536357791367	0.6476727595586027	0.9874243556229564	0.3619453035083993	0.9171129803699881	0.9804661119515611	0.14204420071437876	0.5299784620144662	0.06244843224297454	0.16676729659725667	0.6456155713471192	0.497056679315883	0.189493150344428	0.8230881924379782	0.8804214372490755	0.17744914530361566	0.7027693071287311	1.0059129483513247	0.12089692260978363	0.7351516746914915	0.9818882222974483	0.22563078386194022	0.9147168040113516	0.9294566037163886	0.2367494826698419	0.2904408744019364	-0.4810943564504483	0.20048877249801658	0.07099986775917881	-0.7136225697049928	0.15144695804442862	0.09577183582158345	-0.5467477929631428	0.4008325061776522	0.2586240156863872	-0.46791733658915824	0.5010129691572683	0.31582733109830785	-0.2128653208073012	0.30905437469731056	0.14208573678187703	-0.18331961007305958	0.18195850002217076	0.14290163700377656	-0.21419658133476457	0.19158009506629192	0.08215723996573689	-0.20535032051706587	0.20313631208567678	0.1453391092221452	-0.1385853247650362	0.05418724432990215	0.3889797273582485	-0.4851498856314781	-0.07038426906748245	0.6249050463236541	-0.3470061654408361	-0.01583280850706871	0.543614634757243	-0.12032991636933572	0.042326075349008174	0.47005252856743085	-0.08242815405859648	0.02247088658512635	0.43841129450071015	-0.049135148206644906	0.007554658533127627	0.5679528265215341	-0.03027046773365902
110	1.8644067796610169	0.36527574473917834	0.5115588395215844	0.05972854416588491	0.34353560707091685	0.6137381353155018	0.4749975504491869	0.37738080292262033	0.7934392266624364	0.8977648088719952	0.3242462052628265	0.6734845417331654	1.0145967295285325	0.39751345720286846	0.6474390313394538	0.9874006137527427	0.3619343330373411	0.9170975323133576	0.9796184150037804	0.14267578132471292	0.5302398445471966	0.06320473993162576	0.16640159113102235	0.6471019152998189	0.4977268489756721	0.18919387349810413	0.8233079329531251	0.8816251417739177	0.17866710514600986	0.7030725138526355	1.0066603651463053	0.12088902965051163	0.7351552035334323	0.9818874866543721	0.22556898528951727	0.9146146708910592	0.9296183635907764	0.23958952366174208	0.2902329236488955	-0.48128314014713447	0.20350517316010192	0.07044848358571018	-0.7136293389711379	0.15139153836934852	0.09543328232012263	-0.54831376612256	0.4015140925022986	0.2589927207980029	-0.466355898821182	0.5011552101841172	0.3161818368026243	-0.21071399766465024	0.3094834244287012	0.16261073436793044	-0.1741600497975931	0.1827296689044313	0.14473432193310373	-0.2085652675116449	0.19151668016279838	0.09286597364037932	-0.1967941484390679	0.20054324182998778	0.15849900380659826	-0.137659245717938	0.05612439405770407	0.38875238579261107	-0.48647277839651637	-0.06857842102512456	0.6273770945033854	-0.3453512343138614	-0.013723265034215492	0.5449030879051746	-0.12023983255400576	0.042906507419845544	0.46564988695463827	-0.08355565241046531	0.021882903859168915	0.43670426311291966	-0.049702877442609726	0.011672035682320066	0.5637837250255108	-0.030024058393774523
